<svg xmlns="http://www.w3.org/2000/svg" width="13" height="12" viewBox="0 0 13 12"><path fill="#4c4c4c" d="M11.43 11.29H4.44a1.4 1.4 0 0 1-1.4-1.41h.7c0 .39.32.7.7.7h6.99a.7.7 0 0 0 .7-.7V2.12a.7.7 0 0 0-.7-.7H4.44a.7.7 0 0 0-.7.7h-.7c0-.78.63-1.4 1.4-1.4h6.99c.77 0 1.4.62 1.4 1.4v7.76a1.4 1.4 0 0 1-1.4 1.4zM1.6 5.65h8.24c.2 0 .35.16.35.35 0 .2-.16.35-.35.35H1.6L3.43 8.2c.14.14.14.36 0 .5a.35.35 0 0 1-.49 0L.54 6.27A.35.35 0 0 1 .43 6c-.01-.1.02-.2.1-.27l2.4-2.43a.35.35 0 0 1 .5 0c.13.14.13.36 0 .5z"/></svg>