<svg xmlns="http://www.w3.org/2000/svg" width="20" height="18" viewBox="0 0 20 18"><path fill="#fff" d="M16.9 17.01H6.32a2.13 2.13 0 0 1-2.12-2.13h1.06c0 .59.47 1.06 1.06 1.06H16.9c.58 0 1.06-.47 1.06-1.06V3.12c0-.59-.48-1.06-1.06-1.06H6.32c-.59 0-1.06.47-1.06 1.06H4.2C4.2 1.94 5.15 1 6.32 1H16.9c1.17 0 2.11.95 2.11 2.13v11.76c0 1.18-.94 2.13-2.11 2.13zM2.02 8.47h12.47c.3 0 .53.23.53.53 0 .3-.23.53-.53.53H2.02l2.77 2.8a.53.53 0 1 1-.75.76L.39 9.4A.52.52 0 0 1 .24 9a.52.52 0 0 1 .15-.4L4.04 4.9c.21-.2.54-.2.75 0 .21.2.21.55 0 .76z"/></svg>