<svg xmlns="http://www.w3.org/2000/svg" width="26" height="26" viewBox="0 0 26 26"><path fill="#fff" d="M14.19 5.74c.79 0 1.44.58 1.44 1.43a1.4 1.4 0 0 1-1.44 1.43 1.4 1.4 0 0 1-1.44-1.43c0-.85.65-1.43 1.44-1.43zM13.1 9.61c1 .1 1.47.9 1.29 1.77L12.3 18.3c-.02.15.06.31.2.36.15.06.48-.14.74-.43l1.25-1.5c.04.24-.02.69-.02.86-.94 1.42-1.9 2.5-3.52 2.5-1.1-.17-1.55-.96-1.31-1.77l2.07-6.88c.05-.16-.03-.34-.18-.4-.16-.05-.46.15-.72.43l-1.25 1.51c-.04-.25-.01-.67-.01-.84.95-1.42 2.5-2.53 3.55-2.53zM.01 12.99a12.5 12.5 0 1 0 25 0 12.5 12.5 0 0 0-25 0z"/></svg>