<svg xmlns="http://www.w3.org/2000/svg" width="35" height="29" viewBox="0 0 35 29"><path fill="#fff" d="M17.5.53A16.96 16.96 0 0 1 30.9 27.9c-.17-.88-.78-2.97-2.11-4.47-1.85-2.07-6.23-2.34-8.24-3.63 0-.05.14-2.55.08-2.55.56 0 1.24-2.97 1.24-2.97.67.17.82-1.48.82-1.48s.45-1.62-.5-1.73c.07-.1 2.02-6.54-4.36-6.6-6.47-.05-4.67 6.59-4.62 6.6-.89-.11-.33 1.9-.33 1.9s-.15 1.25.75 1.48c0 .05.59 2.8 1.31 2.96 0 .12-.22 2.4-.16 2.4-.95.78-6.53 2-8.32 3.62-1.3 1.18-1.9 3.59-2.12 4.8A16.97 16.97 0 0 1 17.5.53z"/></svg>