<svg xmlns="http://www.w3.org/2000/svg" width="10" height="17" viewBox="0 0 10 17"><path fill="#fff" d="M1.7 16.9c-.69-.09-1.66-.51-1.66-2.13V2.99S.07.93 2.25.93H7.6S9.99.86 9.99 3.01v11.22c0 .34-.01.9-.12 1.23-.2.6-.75 1.45-2.23 1.45H3.08c-.38 0-1 .04-1.38 0zm3.28-.93c.33 0 .59-.24.59-.53 0-.3-.26-.53-.59-.53-.32 0-.59.24-.59.53 0 .3.27.53.59.53zm1-14.04H4.05c-.38 0-.69.22-.69.5s.31.5.69.5h1.93c.39 0 .69-.22.69-.5 0-.27-.3-.5-.69-.5zm2.22 2H1.83c-.38 0-.68.28-.68.62v8.74c0 .35.3.62.68.62H8.2c.38 0 .69-.27.69-.62V4.55c0-.34-.31-.62-.69-.62z"/></svg>