<svg xmlns="http://www.w3.org/2000/svg" width="22" height="21" viewBox="0 0 22 21"><path fill="#4c4c4c" d="M19.44 15.28H6.46L3.14 2.43H1V1h3.15l3.31 12.86h10.87l1.09-6.43H8.95V6H21zM8.28 21c-1.1 0-1.98-.96-1.98-2.14 0-1.19.89-2.15 1.98-2.15 1.1 0 2 .96 2 2.15 0 1.18-.9 2.14-2 2.14zm0-2.86c-.36 0-.66.32-.66.72 0 .39.3.71.66.71.37 0 .67-.32.67-.71 0-.4-.3-.72-.67-.72zM16.9 21c-1.1 0-2-.96-2-2.14 0-1.19.9-2.15 2-2.15s1.98.96 1.98 2.15c0 1.18-.89 2.14-1.98 2.14zm0-2.86c-.37 0-.67.32-.67.72 0 .39.3.71.67.71.36 0 .66-.32.66-.71 0-.4-.3-.72-.66-.72zM10 12V9h2v3zm4 0V9h2v3z"/></svg>