<svg xmlns="http://www.w3.org/2000/svg" width="22" height="21" viewBox="0 0 22 21"><defs><clipPath id="a"><path fill="#fff" d="M1572.56 414.83l-6.56-4.5-6.55 4.5 2.26-7.62-6.32-4.84 7.96-.2 2.64-7.5 2.66 7.5 7.96.2-6.32 4.84z"/></clipPath></defs><path fill="#6ac8c7" d="M17.56 20.83L11 16.33l-6.55 4.5 2.26-7.62L.39 8.37l7.96-.2 2.64-7.5 2.66 7.5 7.96.2-6.32 4.84z"/><path fill="none" stroke="#6ac8c7" stroke-miterlimit="50" stroke-width="2" d="M1572.56 414.83l-6.56-4.5-6.55 4.5 2.26-7.62-6.32-4.84 7.96-.2 2.64-7.5 2.66 7.5 7.96.2-6.32 4.84z" clip-path="url(&quot;#a&quot;)" transform="translate(-1555 -394)"/></svg>