<svg xmlns="http://www.w3.org/2000/svg" width="16" height="17" viewBox="0 0 16 17"><path fill="#fafafa" d="M13 1H3a3 3 0 0 0-3 3v10a3 3 0 0 0 3 3h10a3 3 0 0 0 3-3V4a3 3 0 0 0-3-3zm-1.02 6.2l.01.26a5.57 5.57 0 0 1-8.63 4.72c.16.01.31.03.47.03.93 0 1.77-.32 2.45-.85A1.97 1.97 0 0 1 4.44 10a2.02 2.02 0 0 0 .89-.03 1.97 1.97 0 0 1-1.58-1.93V8c.26.15.57.24.89.25a1.97 1.97 0 0 1-.61-2.63 5.59 5.59 0 0 0 4.06 2.06 1.97 1.97 0 0 1 3.36-1.8c.45-.09.87-.25 1.25-.47-.15.46-.46.84-.87 1.09.4-.05.78-.16 1.13-.31-.26.39-.6.74-.98 1.01z"/></svg>