<svg xmlns="http://www.w3.org/2000/svg" width="15" height="15" viewBox="0 0 15 15"><path d="M14.49 12.9l-3.01-3.02a6.08 6.08 0 0 0 .6-5.91 6.1 6.1 0 0 0-3.3-3.3 6.1 6.1 0 0 0-4.81 0 6.1 6.1 0 0 0-3.79 5.7c0 .84.16 1.64.49 2.4a6.02 6.02 0 0 0 3.3 3.3 6.02 6.02 0 0 0 5.91-.6l3.02 3.01c.21.23.48.34.79.34.31 0 .57-.11.8-.34.22-.22.33-.48.33-.79 0-.3-.11-.57-.33-.79zM9.16 9.16a3.8 3.8 0 0 1-2.79 1.15 3.8 3.8 0 0 1-2.78-1.15 3.8 3.8 0 0 1-1.16-2.79A3.8 3.8 0 0 1 3.59 3.6a3.8 3.8 0 0 1 2.78-1.16 3.8 3.8 0 0 1 2.79 1.16 3.8 3.8 0 0 1 1.16 2.78 3.8 3.8 0 0 1-1.16 2.79z"/><path fill="#636363" d="M14.49 12.9l-3.01-3.02a6.08 6.08 0 0 0 .6-5.91 6.1 6.1 0 0 0-3.3-3.3 6.1 6.1 0 0 0-4.81 0 6.1 6.1 0 0 0-3.79 5.7c0 .84.16 1.64.49 2.4a6.02 6.02 0 0 0 3.3 3.3 6.02 6.02 0 0 0 5.91-.6l3.02 3.01c.21.23.48.34.79.34.31 0 .57-.11.8-.34.22-.22.33-.48.33-.79 0-.3-.11-.57-.33-.79zM9.16 9.16a3.8 3.8 0 0 1-2.79 1.15 3.8 3.8 0 0 1-2.78-1.15 3.8 3.8 0 0 1-1.16-2.79A3.8 3.8 0 0 1 3.59 3.6a3.8 3.8 0 0 1 2.78-1.16 3.8 3.8 0 0 1 2.79 1.16 3.8 3.8 0 0 1 1.16 2.78 3.8 3.8 0 0 1-1.16 2.79z"/></svg>