<svg xmlns="http://www.w3.org/2000/svg" width="26" height="222" viewBox="0 0 26 222"><svg width="10" height="16" viewBox="0 0 10 16" id="arrow-left" y="0"><path fill="#6d6e70" d="M1.29 8.75l6.4 6.45c.42.41 1.08.41 1.48 0 .41-.41.41-1.08 0-1.48L3.5 8.01l5.67-5.7c.41-.41.41-1.08 0-1.49a1.04 1.04 0 0 0-1.47 0L1.29 7.27c-.2.2-.3.47-.3.74s.1.54.3.74z"></path></svg><svg width="9" height="16" viewBox="0 0 9 16" id="arrow-right" y="16"><path fill="#6d6e70" d="M8.69 8.77l-6.4 6.44a1.04 1.04 0 1 1-1.48-1.48l5.67-5.7-5.67-5.7c-.4-.41-.4-1.08 0-1.49a1.04 1.04 0 0 1 1.48 0l6.4 6.44a1.05 1.05 0 0 1 0 1.49z"></path></svg><svg width="14" height="13" viewBox="0 0 14 13" id="check" y="32"><defs><clipPath id="a"><path fill="#fff" d="M110 722v-13h14v13z"></path></clipPath></defs><path fill="none" stroke="#fff" stroke-miterlimit="50" stroke-width="2" d="M110 722v-13h14v13z" clip-path="url(&quot;#a&quot;)" transform="translate(-110 -709)"></path></svg><svg width="20" height="18" viewBox="0 0 20 18" id="exit" y="45"><path fill="#fff" d="M16.9 17.01H6.32a2.13 2.13 0 0 1-2.12-2.13h1.06c0 .59.47 1.06 1.06 1.06H16.9c.58 0 1.06-.47 1.06-1.06V3.12c0-.59-.48-1.06-1.06-1.06H6.32c-.59 0-1.06.47-1.06 1.06H4.2C4.2 1.94 5.15 1 6.32 1H16.9c1.17 0 2.11.95 2.11 2.13v11.76c0 1.18-.94 2.13-2.11 2.13zM2.02 8.47h12.47c.3 0 .53.23.53.53 0 .3-.23.53-.53.53H2.02l2.77 2.8a.53.53 0 1 1-.75.76L.39 9.4A.52.52 0 0 1 .24 9a.52.52 0 0 1 .15-.4l3.65-3.7c.21-.2.54-.2.75 0 .21.2.21.55 0 .76z"></path></svg><svg width="26" height="26" viewBox="0 0 26 26" id="info" y="63"><path fill="#fff" d="M14.19 5.74c.79 0 1.44.58 1.44 1.43a1.4 1.4 0 0 1-1.44 1.43 1.4 1.4 0 0 1-1.44-1.43c0-.85.65-1.43 1.44-1.43zM13.1 9.61c1 .1 1.47.9 1.29 1.77L12.3 18.3c-.02.15.06.31.2.36.15.06.48-.14.74-.43l1.25-1.5c.04.24-.02.69-.02.86-.94 1.42-1.9 2.5-3.52 2.5-1.1-.17-1.55-.96-1.31-1.77l2.07-6.88a.329.329 0 0 0-.18-.4c-.16-.05-.46.15-.72.43l-1.25 1.51c-.04-.25-.01-.67-.01-.84.95-1.42 2.5-2.53 3.55-2.53zM.01 12.99a12.5 12.5 0 1 0 25 0 12.5 12.5 0 0 0-25 0z"></path></svg><svg width="15" height="15" viewBox="0 0 15 15" id="loop" y="89"><path d="M14.49 12.9l-3.01-3.02a6.08 6.08 0 0 0 .6-5.91 6.1 6.1 0 0 0-3.3-3.3 6.1 6.1 0 0 0-4.81 0 6.1 6.1 0 0 0-3.79 5.7c0 .84.16 1.64.49 2.4a6.02 6.02 0 0 0 3.3 3.3 6.02 6.02 0 0 0 5.91-.6l3.02 3.01c.21.23.48.34.79.34.31 0 .57-.11.8-.34.22-.22.33-.48.33-.79 0-.3-.11-.57-.33-.79zM9.16 9.16a3.8 3.8 0 0 1-2.79 1.15 3.8 3.8 0 0 1-2.78-1.15 3.8 3.8 0 0 1-1.16-2.79A3.8 3.8 0 0 1 3.59 3.6a3.8 3.8 0 0 1 2.78-1.16A3.8 3.8 0 0 1 9.16 3.6a3.8 3.8 0 0 1 1.16 2.78 3.8 3.8 0 0 1-1.16 2.79z"></path><path fill="#636363" d="M14.49 12.9l-3.01-3.02a6.08 6.08 0 0 0 .6-5.91 6.1 6.1 0 0 0-3.3-3.3 6.1 6.1 0 0 0-4.81 0 6.1 6.1 0 0 0-3.79 5.7c0 .84.16 1.64.49 2.4a6.02 6.02 0 0 0 3.3 3.3 6.02 6.02 0 0 0 5.91-.6l3.02 3.01c.21.23.48.34.79.34.31 0 .57-.11.8-.34.22-.22.33-.48.33-.79 0-.3-.11-.57-.33-.79zM9.16 9.16a3.8 3.8 0 0 1-2.79 1.15 3.8 3.8 0 0 1-2.78-1.15 3.8 3.8 0 0 1-1.16-2.79A3.8 3.8 0 0 1 3.59 3.6a3.8 3.8 0 0 1 2.78-1.16A3.8 3.8 0 0 1 9.16 3.6a3.8 3.8 0 0 1 1.16 2.78 3.8 3.8 0 0 1-1.16 2.79z"></path></svg><svg width="11" height="11" viewBox="0 0 11 11" id="mini-arr-down" y="104"><path fill="#fafafa" d="M6.18 10.57a.7.7 0 0 1-.62.18.69.69 0 0 1-.62-.18L.97 6.59a.7.7 0 1 1 1-1l2.89 2.9V1.05a.7.7 0 0 1 1.4 0V8.5l2.9-2.9a.7.7 0 0 1 1 1z"></path></svg><svg width="11" height="11" viewBox="0 0 11 11" id="mini-arr-right" y="115"><path fill="#fff" d="M10.6 5.98a.7.7 0 0 0 .17-.62.7.7 0 0 0-.18-.62L6.62.76a.7.7 0 1 0-1 1l2.9 2.9H1.08a.7.7 0 0 0 0 1.4h7.44l-2.9 2.9a.7.7 0 0 0 1 1z"></path></svg><svg width="11" height="12" viewBox="0 0 11 12" id="mini-arr-up" y="126"><path fill="#fafafa" d="M6.12.96A.69.69 0 0 0 5.5.77a.69.69 0 0 0-.62.19L.91 4.93a.7.7 0 0 0 1 1l2.89-2.9v7.44a.7.7 0 0 0 1.4 0V3.03l2.9 2.9a.7.7 0 1 0 1-1z"></path></svg><svg width="22" height="21" viewBox="0 0 22 21" id="shopping-cart" y="138"><path fill="#fafafa" d="M19.44 15.28H6.45L3.15 2.43H1V1h3.15l3.31 12.86h10.87l1.09-6.43H8.95V6H21zM8.28 21c-1.1 0-1.98-.96-1.98-2.14 0-1.19.89-2.15 1.98-2.15 1.1 0 2 .96 2 2.15 0 1.18-.9 2.14-2 2.14zm0-2.86c-.36 0-.66.32-.66.72 0 .39.3.71.66.71.37 0 .67-.32.67-.71 0-.4-.3-.72-.67-.72zM16.9 21c-1.1 0-2-.96-2-2.14 0-1.19.9-2.15 2-2.15s1.98.96 1.98 2.15c0 1.18-.89 2.14-1.98 2.14zm0-2.86c-.37 0-.67.32-.67.72 0 .39.3.71.67.71.36 0 .66-.32.66-.71 0-.4-.3-.72-.66-.72zM10 12V9h2v3zm4 0V9h2v3z"></path></svg><svg width="22" height="21" viewBox="0 0 22 21" id="star" y="159"><defs><clipPath id="a"><path fill="#fff" d="M1572.56 414.83l-6.56-4.5-6.55 4.5 2.26-7.62-6.32-4.84 7.96-.2 2.64-7.5 2.66 7.5 7.96.2-6.32 4.84z"></path></clipPath></defs><path fill="#6ac8c7" d="M17.56 20.83L11 16.33l-6.55 4.5 2.26-7.62L.39 8.37l7.96-.2 2.64-7.5 2.66 7.5 7.96.2-6.32 4.84z"></path><path fill="none" stroke="#6ac8c7" stroke-miterlimit="50" stroke-width="2" d="M1572.56 414.83l-6.56-4.5-6.55 4.5 2.26-7.62-6.32-4.84 7.96-.2 2.64-7.5 2.66 7.5 7.96.2-6.32 4.84z" clip-path="url(&quot;#a&quot;)" transform="translate(-1555 -394)"></path></svg><svg width="22" height="21" viewBox="0 0 22 21" id="star-05" y="180"><path fill="#b6e8e7" d="M17.56 20.85L11 16.35l-6.55 4.5 2.26-7.62L.39 8.4l7.96-.2L10.99.7l2.66 7.5 7.96.2-6.32 4.84z"></path></svg><svg width="22" height="21" viewBox="0 0 22 21" id="star-not" y="201"><defs><clipPath id="a"><path fill="#fff" d="M1572.56 334.86l-6.56-4.5-6.55 4.5 2.26-7.62-6.32-4.84 7.96-.2 2.64-7.5 2.66 7.5 7.96.2-6.32 4.83z"></path></clipPath></defs><path fill="none" stroke="#6ac8c7" stroke-miterlimit="50" stroke-width="2" d="M1572.56 334.86l-6.56-4.5-6.55 4.5 2.26-7.62-6.32-4.84 7.96-.2 2.64-7.5 2.66 7.5 7.96.2-6.32 4.83z" clip-path="url(&quot;#a&quot;)" transform="translate(-1555 -314)"></path></svg></svg>